<svg xmlns="http://www.w3.org/2000/svg" viewBox="0 0 39.9 25.01"><g id="Layer_2" data-name="Layer 2"><g id="Layer_1-2" data-name="Layer 1"><g id="Behance"><path id="Path_6" data-name="Path 6" d="M11.57,0a15,15,0,0,1,3.2.31,7.25,7.25,0,0,1,2.48,1,4.78,4.78,0,0,1,1.6,1.88,6.61,6.61,0,0,1,.56,2.88,5.36,5.36,0,0,1-.84,3.09,6.16,6.16,0,0,1-2.5,2,5.88,5.88,0,0,1,3.37,2.29,7.53,7.53,0,0,1,.4,7.15,6.32,6.32,0,0,1-1.94,2.23,8.5,8.5,0,0,1-2.79,1.27,12.45,12.45,0,0,1-3.21.41H0V0Zm-.7,9.92a4,4,0,0,0,2.38-.69A2.61,2.61,0,0,0,14.17,7a2.85,2.85,0,0,0-.3-1.41A2.28,2.28,0,0,0,13,4.73a3.62,3.62,0,0,0-1.19-.43,8.16,8.16,0,0,0-1.39-.12H5.4V9.91Zm.3,10.44a6.91,6.91,0,0,0,1.51-.15A3.68,3.68,0,0,0,14,19.69a2.76,2.76,0,0,0,.88-1,3.49,3.49,0,0,0,.32-1.59,3.2,3.2,0,0,0-1.07-2.71,4.53,4.53,0,0,0-2.81-.8H5.4v6.76Z"/><path id="Path_7" data-name="Path 7" d="M28.25,20.28a5,5,0,0,0,5.71.33A3.21,3.21,0,0,0,35.26,19h4.3a8.18,8.18,0,0,1-3.17,4.59A9.16,9.16,0,0,1,31.24,25a10.24,10.24,0,0,1-3.79-.67,8.16,8.16,0,0,1-2.87-1.91,8.92,8.92,0,0,1-1.8-3,11.14,11.14,0,0,1-.64-3.79A10.5,10.5,0,0,1,22.8,12a8.66,8.66,0,0,1,1.86-3,8.93,8.93,0,0,1,2.88-2,9.22,9.22,0,0,1,3.71-.72,8.42,8.42,0,0,1,3.94.88A7.77,7.77,0,0,1,38,9.5a9.59,9.59,0,0,1,1.57,3.38,12.49,12.49,0,0,1,.33,3.95H27A5,5,0,0,0,28.25,20.28Zm5.61-9.34a3.64,3.64,0,0,0-2.76-1,4.12,4.12,0,0,0-2,.4,3.86,3.86,0,0,0-1.23,1,3.71,3.71,0,0,0-.66,1.26A5.75,5.75,0,0,0,27,13.76H35A4.78,4.78,0,0,0,33.86,10.94Z"/><rect id="Rectangle_6" data-name="Rectangle 6" x="26.04" y="1.65" width="9.95" height="2.42"/></g></g></g></svg>