<svg xmlns="http://www.w3.org/2000/svg" viewBox="0 0 25 25"><g id="Layer_2" data-name="Layer 2"><g id="Layer_1-2" data-name="Layer 1"><g id="Instagram"><path id="Path_4" data-name="Path 4" d="M12.5,2.25c3.34,0,3.73,0,5.05.08a6.58,6.58,0,0,1,2.32.43,4.13,4.13,0,0,1,2.37,2.37,6.82,6.82,0,0,1,.44,2.32c.05,1.32.07,1.71.07,5.05s0,3.73-.07,5.05a6.82,6.82,0,0,1-.44,2.32,4.13,4.13,0,0,1-2.37,2.37,6.81,6.81,0,0,1-2.32.43c-1.32.06-1.71.08-5.05.08s-3.73,0-5-.08a6.81,6.81,0,0,1-2.32-.43,4.13,4.13,0,0,1-2.37-2.37,6.81,6.81,0,0,1-.43-2.32c-.06-1.32-.08-1.71-.08-5.05s0-3.73.08-5a6.81,6.81,0,0,1,.43-2.32A4.13,4.13,0,0,1,5.13,2.76a6.58,6.58,0,0,1,2.32-.43c1.32-.07,1.71-.08,5.05-.08M12.5,0C9.11,0,8.68,0,7.35.08a9,9,0,0,0-3,.58A6.37,6.37,0,0,0,.66,4.31a9,9,0,0,0-.58,3C0,8.68,0,9.11,0,12.5s0,3.82.08,5.16a9,9,0,0,0,.58,3,6.31,6.31,0,0,0,3.65,3.65,9,9,0,0,0,3,.59C8.68,25,9.11,25,12.5,25s3.82,0,5.16-.07a9,9,0,0,0,3-.59,6.31,6.31,0,0,0,3.65-3.65,9,9,0,0,0,.59-3C25,16.32,25,15.9,25,12.5s0-3.82-.07-5.15a9,9,0,0,0-.59-3A6.34,6.34,0,0,0,20.69.66a9,9,0,0,0-3-.58C16.32,0,15.9,0,12.5,0Z"/><path id="Path_5" data-name="Path 5" d="M12.5,6.08a6.42,6.42,0,1,0,6.42,6.42h0A6.42,6.42,0,0,0,12.5,6.08Zm0,10.59a4.17,4.17,0,1,1,4.17-4.17,4.17,4.17,0,0,1-4.17,4.17Z"/><circle id="Ellipse_1" data-name="Ellipse 1" cx="19.17" cy="5.83" r="1.5"/></g></g></g></svg>