<svg xmlns="http://www.w3.org/2000/svg" viewBox="0 0 300 300"><defs><style>.cls-1{isolation:isolate;}.cls-2{fill:#141414;}.cls-3{fill:#c6c6c6;}.cls-4{mix-blend-mode:multiply;}.cls-5{fill:gray;}.cls-6{fill:#fff;}.cls-7{fill:#e6e6e6;}.cls-8{fill:#b3b3b3;}</style></defs><g class="cls-1"><g id="Layer_2" data-name="Layer 2"><g id="Layer_1-2" data-name="Layer 1"><rect class="cls-2" width="300" height="300" rx="150"/><path class="cls-3" d="M242,143a46,46,0,0,0-76-34.86V65H134v89.14A46,46,0,1,0,150,189a46,46,0,1,0,85.83-23A45.75,45.75,0,0,0,242,143ZM104,219a30,30,0,1,1,30-30A30,30,0,0,1,104,219Zm92-106a30,30,0,0,1,28.36,39.79,46,46,0,0,0-56.72,0A30,30,0,0,1,196,113Zm19.26,53a30,30,0,0,1-38.52,0,30,30,0,0,1,38.52,0ZM196,219a30,30,0,0,1-28.36-39.79,46,46,0,0,0,56.72,0A30,30,0,0,1,196,219Z"/><g class="cls-4"><rect class="cls-5" x="150" y="65" width="16" height="124"/><path class="cls-6" d="M104,143a46,46,0,1,0,46,46A46,46,0,0,0,104,143Zm0,76a30,30,0,1,1,30-30A30,30,0,0,1,104,219Z"/><path class="cls-7" d="M196,97a46,46,0,1,0,46,46A46,46,0,0,0,196,97Zm0,76a30,30,0,1,1,30-30A30,30,0,0,1,196,173Z"/><path class="cls-8" d="M196,143a46,46,0,1,0,46,46A46,46,0,0,0,196,143Zm0,76a30,30,0,1,1,30-30A30,30,0,0,1,196,219Z"/><rect class="cls-6" x="134" y="65" width="16" height="124"/></g></g></g></g></svg>