<svg xmlns="http://www.w3.org/2000/svg" viewBox="0 0 30.76 25"><g id="Layer_2" data-name="Layer 2"><g id="Layer_1-2" data-name="Layer 1"><g id="Twitter"><path id="Twitter_Icon" data-name="Twitter Icon" d="M9.67,25c11.61,0,18-9.62,18-18,0-.27,0-.55,0-.82A12.84,12.84,0,0,0,30.76,3a12.64,12.64,0,0,1-3.62,1A6.36,6.36,0,0,0,29.91.46,12.76,12.76,0,0,1,25.9,2,6.32,6.32,0,0,0,15.14,7.75a17.94,17.94,0,0,1-13-6.6A6.31,6.31,0,0,0,4.09,9.57a6.23,6.23,0,0,1-2.86-.79v.08a6.3,6.3,0,0,0,5.06,6.19,6.38,6.38,0,0,1-2.85.11,6.32,6.32,0,0,0,5.9,4.38A12.68,12.68,0,0,1,1.5,22.25,12.58,12.58,0,0,1,0,22.16,17.87,17.87,0,0,0,9.68,25"/></g></g></g></svg>